<?xml version="1.0" encoding="UTF-8"?>
<!DOCTYPE svg PUBLIC "-//W3C//DTD SVG 1.1//EN" "http://www.w3.org/Graphics/SVG/1.1/DTD/svg11.dtd">
<!-- Creator: CorelDRAW X8 -->
<svg xmlns="http://www.w3.org/2000/svg" xml:space="preserve" width="1091px" height="560px" version="1.1" style="shape-rendering:geometricPrecision; text-rendering:geometricPrecision; image-rendering:optimizeQuality; fill-rule:evenodd; clip-rule:evenodd"
viewBox="0 0 1009 518"
 xmlns:xlink="http://www.w3.org/1999/xlink">
 <defs>
  <style type="text/css">
   <![CDATA[
    .fil0 {fill:none}
    .fil2 {fill:#0E8E41}
    .fil6 {fill:#4D4D4D}
    .fil1 {fill:#F27B13}
    .fil4 {fill:#041F73;fill-rule:nonzero}
    .fil3 {fill:#4D4D4D;fill-rule:nonzero}
    .fil5 {fill:#4D4D4D;fill-rule:nonzero}
   ]]>
  </style>
 </defs>
 <g id="Layer_x0020_1">
  <metadata id="CorelCorpID_0Corel-Layer"/>
  <rect class="fil0" width="1009" height="518"/>
  <g id="_1993327867744">
   <path class="fil1" d="M373 416c-2,0 -5,2 -7,3l-18 8c-9,5 -32,10 -41,11l-17 1c-69,4 -131,-31 -166,-90 -10,-18 -19,-42 -22,-61 -2,-10 -2,-12 -2,-22 -2,-29 4,-64 21,-96 32,-58 88,-91 151,-95 31,-2 62,4 96,21 -4,-4 -21,-12 -28,-16 -54,-25 -121,-22 -172,6 -66,36 -108,108 -102,183 0,9 0,9 1,16 0,0 0,0 0,1 0,2 1,2 1,4 0,6 5,21 6,26 15,49 53,95 105,119 42,19 88,22 128,12 7,-2 15,-4 23,-7 7,-3 14,-6 22,-10 3,-2 19,-11 21,-14z"/>
   <path class="fil2" d="M38 282l-1 -15c-2,-75 33,-144 96,-185 4,-3 8,-5 13,-8l13 -7c-1,0 -12,4 -14,5 -14,5 -26,10 -40,20 -18,12 -34,25 -49,44 -30,40 -43,84 -42,132 1,40 17,80 40,112 21,28 51,51 86,65 7,3 28,10 34,10 -4,-2 -10,-4 -15,-6 -14,-7 -29,-16 -41,-25 -28,-23 -51,-52 -64,-83 -3,-8 -6,-16 -8,-23 -3,-9 -4,-15 -6,-24l-2 -12z"/>
   <path class="fil3" d="M498 299l-51 -106c-3,-6 -7,-9 -12,-9l-6 0c-5,0 -9,3 -12,9l-51 106 29 0 37 -79 17 37 -24 0 -11 24 47 0 8 18 29 0z"/>
   <path class="fil3" d="M255 299c10,0 18,-4 24,-10 -11,-7 -17,-20 -9,-33 3,-5 7,-9 12,-13 -6,-9 -15,-14 -27,-14l-44 0c-4,0 -6,-3 -6,-8 0,-5 2,-7 6,-7l75 0 0 -30 -76 0c-19,0 -32,14 -32,35 0,20 13,35 32,35l44 0c4,0 7,3 7,8 0,4 -3,7 -7,7l-75 0 0 30 76 0zm27 -15l0 0 0 0 0 0z"/>
   <path class="fil4" d="M554 299l0 -115 -27 0 0 115 27 0zm115 0c7,0 10,-4 10,-12l0 -103 -26 0 0 67 -47 -58c-5,-6 -8,-9 -16,-9l-7 0c-8,0 -12,5 -12,13l0 102 26 0 0 -74 52 64c5,7 8,10 15,10l5 0zm85 0c31,0 53,-23 53,-57 0,-35 -22,-58 -53,-58l-58 0 0 115 58 0zm-31 -30l0 -55 33 0c14,0 24,11 24,28 0,16 -10,27 -24,27l-33 0zm125 30l0 -115 -27 0 0 115 27 0zm143 0l-52 -106c-2,-6 -6,-9 -12,-9l-6 0c-5,0 -9,3 -12,9l-51 106 30 0 36 -79 18 37 -25 0 -11 24 47 0 8 18 30 0z"/>
   <path class="fil5" d="M190 342c-4,-2 -7,-3 -9,-5 -1,-1 -2,-3 -2,-6 0,-2 1,-4 3,-6 2,-2 5,-3 8,-3 3,0 5,1 7,2 1,0 3,2 4,3 1,2 1,4 1,5l-4 0c0,-2 -1,-3 -2,-4 -1,-2 -3,-2 -6,-2 -2,0 -4,0 -5,1 -1,1 -2,3 -2,4 0,2 1,3 2,4 1,1 3,2 6,3 3,0 5,1 7,2 1,1 3,2 3,4 1,1 1,2 1,4 0,3 -1,5 -3,7 -2,1 -5,2 -8,2 -3,0 -5,0 -7,-1 -2,-1 -3,-2 -5,-4 -1,-1 -1,-3 -1,-5l4 0c0,2 1,3 3,5 1,1 3,1 6,1 2,0 4,0 5,-1 1,-1 2,-2 2,-4 0,-2 -1,-3 -2,-4 -1,-1 -3,-2 -6,-2zm23 -17l0 6 5 0 0 4 -5 0 0 15c0,1 1,2 1,3 0,0 1,0 2,0 1,0 1,0 2,0l0 4c-1,0 -2,0 -3,0 -2,0 -3,0 -4,-2 -1,-1 -2,-2 -2,-5l0 -15 -5 0 0 -4 5 0 0 -6 4 0zm22 10c0,0 -1,0 -2,0 -3,0 -5,1 -6,4l0 18 -4 0 0 -26 4 0 0 3c2,-2 4,-3 6,-3 1,0 2,0 2,0l0 4zm19 22c0,-1 0,-2 -1,-3 -2,2 -4,3 -7,3 -2,0 -4,-1 -6,-2 -2,-1 -2,-3 -2,-5 0,-3 1,-5 3,-6 2,-2 5,-3 8,-3l4 0 0 -2c0,-1 0,-2 -1,-3 -1,-1 -2,-2 -4,-2 -2,0 -3,1 -4,2 -1,0 -1,1 -1,2l-5 0c0,-1 1,-2 2,-3 0,-1 2,-2 3,-3 2,-1 3,-1 5,-1 3,0 5,1 7,2 2,2 3,4 3,6l0 12c0,2 0,4 1,5l0 1 -5 0zm-7 -4c1,0 2,0 4,-1 1,0 2,-1 2,-2l0 -6 -3 0c-5,0 -8,2 -8,5 0,1 0,3 1,3 1,1 2,1 4,1zm23 -28l0 6 5 0 0 4 -5 0 0 15c0,1 1,2 1,3 0,0 1,0 2,0 1,0 1,0 2,0l0 4c-1,0 -2,0 -3,0 -2,0 -4,0 -5,-2 -1,-1 -1,-2 -1,-5l0 -15 -5 0 0 -4 5 0 0 -6 4 0zm21 32c-4,0 -7,-1 -9,-3 -2,-2 -3,-5 -3,-9l0 -1c0,-3 0,-5 1,-7 1,-2 3,-3 4,-4 2,-2 4,-2 6,-2 3,0 6,1 8,3 1,2 2,5 2,9l0 2 -17 0c0,3 1,5 2,6 2,2 4,3 6,3 1,0 3,-1 4,-1 1,-1 2,-2 2,-3l3 2c-2,4 -5,5 -9,5zm-1 -23c-2,0 -3,1 -4,2 -2,2 -2,3 -3,6l13 0 0 -1c0,-2 -1,-4 -2,-5 -1,-1 -2,-2 -4,-2zm14 10c0,-4 1,-7 3,-10 2,-2 4,-3 7,-3 3,0 6,1 8,3l0 -3 4 0 0 25c0,3 -1,6 -3,8 -2,2 -5,3 -8,3 -2,0 -4,-1 -5,-2 -2,0 -3,-1 -4,-3l2 -2c2,2 4,3 7,3 2,0 3,-1 5,-2 1,-1 1,-3 1,-5l0 -2c-1,2 -4,3 -7,3 -3,0 -5,-1 -7,-3 -2,-3 -3,-6 -3,-10zm5 0c0,3 0,5 1,7 2,2 3,2 5,2 3,0 5,-1 6,-3l0 -12c-1,-2 -3,-3 -6,-3 -2,0 -3,0 -5,2 -1,2 -1,4 -1,7zm28 13l-4 0 0 -26 4 0 0 26zm-5 -32c0,-1 0,-2 1,-2 0,-1 1,-1 2,-1 1,0 1,0 2,1 0,0 0,1 0,2 0,0 0,1 0,1 -1,1 -1,1 -2,1 -1,0 -2,0 -2,-1 -1,0 -1,-1 -1,-1zm22 29c1,0 3,-1 4,-2 1,-1 2,-2 2,-3l4 0c0,1 -1,3 -1,4 -1,1 -3,2 -4,3 -2,1 -3,1 -5,1 -3,0 -6,-1 -8,-3 -2,-3 -3,-6 -3,-10l0 0c0,-3 0,-5 1,-7 1,-2 2,-3 4,-4 2,-2 4,-2 6,-2 3,0 5,1 7,2 2,2 3,4 3,7l-4 0c0,-2 -1,-3 -2,-4 -1,-1 -2,-2 -4,-2 -2,0 -4,1 -5,3 -1,1 -2,4 -2,7l0 1c0,2 1,5 2,6 1,2 3,3 5,3zm32 3l-4 0 0 -34 4 0 0 34zm12 -26l0 4c2,-3 4,-4 8,-4 5,0 8,3 8,9l0 17 -5 0 0 -17c0,-2 0,-3 -1,-4 -1,-1 -2,-1 -4,-1 -1,0 -2,0 -3,1 -2,0 -2,1 -3,3l0 18 -4 0 0 -26 4 0zm28 -6l0 6 5 0 0 4 -5 0 0 15c0,1 0,2 1,3 0,0 1,0 2,0 0,0 1,0 2,0l0 4c-1,0 -2,0 -4,0 -1,0 -3,0 -4,-2 -1,-1 -1,-2 -1,-5l0 -15 -5 0 0 -4 5 0 0 -6 4 0zm20 32c-3,0 -6,-1 -8,-3 -2,-2 -3,-5 -3,-9l0 -1c0,-3 0,-5 1,-7 1,-2 2,-3 4,-4 2,-2 4,-2 6,-2 3,0 6,1 7,3 2,2 3,5 3,9l0 2 -17 0c0,3 1,5 2,6 2,2 3,3 5,3 2,0 3,-1 4,-1 1,-1 2,-2 3,-3l3 2c-2,4 -6,5 -10,5zm0 -23c-2,0 -4,1 -5,2 -1,2 -2,3 -2,6l13 0 0 -1c0,-2 -1,-4 -2,-5 -1,-1 -3,-2 -4,-2zm20 23l-5 0 0 -36 5 0 0 36zm11 0l-4 0 0 -36 4 0 0 36zm12 0l-4 0 0 -26 4 0 0 26zm-5 -32c0,-1 1,-2 1,-2 0,-1 1,-1 2,-1 1,0 1,0 2,1 0,0 0,1 0,2 0,0 0,1 0,1 -1,1 -1,1 -2,1 -1,0 -2,0 -2,-1 0,0 -1,-1 -1,-1zm11 19c0,-4 1,-7 3,-10 1,-2 4,-3 7,-3 3,0 5,1 7,3l0 -3 4 0 0 25c0,3 -1,6 -3,8 -2,2 -4,3 -8,3 -1,0 -3,-1 -5,-2 -2,0 -3,-1 -4,-3l2 -2c2,2 4,3 7,3 2,0 4,-1 5,-2 1,-1 2,-3 2,-5l0 -2c-2,2 -4,3 -7,3 -3,0 -6,-1 -7,-3 -2,-3 -3,-6 -3,-10zm4 0c0,3 1,5 2,7 1,2 3,2 5,2 3,0 5,-1 6,-3l0 -12c-1,-2 -3,-3 -6,-3 -2,0 -4,0 -5,2 -1,2 -2,4 -2,7zm34 13c-3,0 -6,-1 -8,-3 -2,-2 -3,-5 -3,-9l0 -1c0,-3 0,-5 1,-7 1,-2 2,-3 4,-4 2,-2 4,-2 6,-2 3,0 6,1 7,3 2,2 3,5 3,9l0 2 -17 0c0,3 1,5 2,6 2,2 3,3 5,3 2,0 3,-1 4,-1 1,-1 2,-2 3,-3l3 2c-2,4 -6,5 -10,5zm0 -23c-2,0 -4,1 -5,2 -1,2 -2,3 -2,6l13 0 0 -1c0,-2 -1,-4 -2,-5 -1,-1 -3,-2 -4,-2zm19 -3l0 4c2,-3 5,-4 8,-4 5,0 8,3 8,9l0 17 -4 0 0 -17c0,-2 -1,-3 -2,-4 0,-1 -2,-1 -3,-1 -2,0 -3,0 -4,1 -1,0 -2,1 -3,3l0 18 -4 0 0 -26 4 0zm33 23c1,0 2,-1 4,-2 1,-1 1,-2 2,-3l4 0c0,1 -1,3 -2,4 -1,1 -2,2 -4,3 -1,1 -3,1 -4,1 -4,0 -7,-1 -9,-3 -2,-3 -3,-6 -3,-10l0 0c0,-3 1,-5 2,-7 1,-2 2,-3 4,-4 1,-2 3,-2 6,-2 2,0 5,1 7,2 1,2 2,4 3,7l-4 0c-1,-2 -1,-3 -2,-4 -1,-1 -3,-2 -4,-2 -3,0 -4,1 -6,3 -1,1 -1,4 -1,7l0 1c0,2 0,5 1,6 2,2 3,3 6,3zm25 3c-3,0 -6,-1 -8,-3 -3,-2 -4,-5 -4,-9l0 -1c0,-3 1,-5 2,-7 1,-2 2,-3 4,-4 2,-2 3,-2 5,-2 4,0 6,1 8,3 2,2 3,5 3,9l0 2 -17 0c0,3 0,5 2,6 1,2 3,3 5,3 2,0 3,-1 4,-1 1,-1 2,-2 3,-3l3 2c-3,4 -6,5 -10,5zm-1 -23c-1,0 -3,1 -4,2 -1,2 -2,3 -2,6l13 0 0 -1c-1,-2 -1,-4 -2,-5 -1,-1 -3,-2 -5,-2zm27 14c0,-2 0,-4 1,-5 1,-1 3,-3 5,-5 -1,-2 -2,-3 -3,-4 0,-1 0,-2 0,-4 0,-2 0,-4 2,-6 1,-1 3,-2 6,-2 2,0 4,1 6,2 1,2 2,3 2,5 0,2 0,3 -1,4 -1,1 -2,3 -4,4l-2 2 7 9c2,-2 2,-5 2,-7l4 0c0,4 -1,7 -3,10l5 6 -5 0 -2 -3c-2,1 -3,2 -5,2 -1,1 -3,1 -4,1 -4,0 -6,-1 -8,-3 -2,-1 -3,-4 -3,-6zm11 6c2,0 4,-1 6,-3l-8 -10 -1 1c-3,2 -4,3 -4,6 0,1 1,3 2,4 1,1 3,2 5,2zm-4 -24c0,2 1,4 3,6l2 -2c1,-1 2,-1 3,-2 0,-1 0,-2 0,-3 0,-1 0,-2 -1,-2 -1,-1 -2,-1 -3,-1 -1,0 -2,0 -3,1 -1,1 -1,2 -1,3zm55 18l-15 0 -3 9 -4 0 13 -34 3 0 14 34 -5 0 -3 -9zm-13 -4l11 0 -5 -16 -6 16zm23 0c0,-4 1,-7 3,-10 2,-2 4,-3 7,-3 3,0 6,1 7,3l0 -13 5 0 0 36 -4 0 0 -3c-2,2 -5,3 -8,3 -3,0 -5,-1 -7,-3 -2,-3 -3,-6 -3,-10l0 0zm5 0c0,3 0,5 1,7 2,2 3,2 5,2 3,0 5,-1 6,-3l0 -12c-1,-2 -3,-3 -6,-3 -2,0 -3,0 -5,2 -1,2 -1,4 -1,7zm32 7l6 -20 4 0 -9 26 -3 0 -9 -26 4 0 7 20zm13 -7c0,-3 1,-5 2,-7 0,-2 2,-3 4,-4 1,-2 3,-2 6,-2 3,0 6,1 8,3 2,3 3,6 3,10l0 0c0,3 0,5 -1,7 -1,2 -3,3 -4,5 -2,1 -4,1 -6,1 -4,0 -7,-1 -9,-3 -2,-3 -3,-6 -3,-10l0 0zm4 0c0,3 1,5 2,7 2,2 3,3 6,3 2,0 3,-1 5,-3 1,-2 2,-4 2,-7 0,-3 -1,-5 -2,-7 -2,-2 -3,-3 -5,-3 -3,0 -4,1 -6,3 -1,2 -2,4 -2,7zm35 10c1,0 2,-1 4,-2 1,-1 1,-2 2,-3l4 0c0,1 -1,3 -2,4 -1,1 -2,2 -4,3 -1,1 -3,1 -4,1 -4,0 -7,-1 -9,-3 -2,-3 -3,-6 -3,-10l0 0c0,-3 1,-5 2,-7 1,-2 2,-3 4,-4 1,-2 3,-2 6,-2 2,0 5,1 7,2 2,2 3,4 3,7l-4 0c-1,-2 -1,-3 -2,-4 -1,-1 -3,-2 -4,-2 -3,0 -4,1 -6,3 -1,1 -1,4 -1,7l0 1c0,2 0,5 1,6 2,2 3,3 6,3zm30 3c0,-1 0,-2 0,-3 -3,2 -5,3 -8,3 -2,0 -4,-1 -6,-2 -1,-1 -2,-3 -2,-5 0,-3 1,-5 3,-6 2,-2 5,-3 8,-3l4 0 0 -2c0,-1 0,-2 -1,-3 -1,-1 -2,-2 -4,-2 -1,0 -3,1 -4,2 -1,0 -1,1 -1,2l-5 0c0,-1 1,-2 2,-3 1,-1 2,-2 3,-3 2,-1 4,-1 5,-1 3,0 6,1 7,2 2,2 3,4 3,6l0 12c0,2 0,4 1,5l0 1 -5 0zm-7 -4c1,0 3,0 4,-1 1,0 2,-1 2,-2l0 -6 -3 0c-5,0 -8,2 -8,5 0,1 1,3 1,3 1,1 3,1 4,1zm28 1c1,0 3,-1 4,-2 1,-1 1,-2 2,-3l4 0c0,1 -1,3 -2,4 -1,1 -2,2 -3,3 -2,1 -4,1 -5,1 -4,0 -7,-1 -9,-3 -2,-3 -3,-6 -3,-10l0 0c0,-3 1,-5 2,-7 1,-2 2,-3 4,-4 1,-2 3,-2 6,-2 2,0 5,1 7,2 2,2 3,4 3,7l-4 0c-1,-2 -1,-3 -2,-4 -1,-1 -3,-2 -4,-2 -3,0 -4,1 -5,3 -2,1 -2,4 -2,7l0 1c0,2 0,5 2,6 1,2 2,3 5,3zm23 -4l6 -19 4 0 -10 30c-1,4 -4,6 -7,6l-1 0 -2 -1 0 -3 1 0c2,0 3,0 4,-1 1,0 1,-1 2,-3l1 -3 -9 -25 5 0 6 19zm32 7l-5 0 0 -34 5 0 0 34zm11 -26l0 4c2,-3 5,-4 8,-4 5,0 8,3 8,9l0 17 -4 0 0 -17c0,-2 -1,-3 -2,-4 0,-1 -2,-1 -3,-1 -2,0 -3,0 -4,1 -1,0 -2,1 -3,3l0 18 -4 0 0 -26 4 0zm21 13c0,-4 1,-7 3,-10 2,-2 4,-3 7,-3 3,0 6,1 7,3l0 -13 5 0 0 36 -4 0 0 -3c-2,2 -5,3 -8,3 -3,0 -5,-1 -7,-3 -2,-3 -3,-6 -3,-10l0 0zm5 0c0,3 0,5 1,7 2,2 3,2 5,2 3,0 5,-1 6,-3l0 -12c-1,-2 -3,-3 -6,-3 -2,0 -3,0 -5,2 -1,2 -1,4 -1,7zm28 13l-4 0 0 -26 4 0 0 26zm-5 -32c0,-1 1,-2 1,-2 1,-1 1,-1 2,-1 1,0 1,0 2,1 0,0 1,1 1,2 0,0 -1,1 -1,1 -1,1 -1,1 -2,1 -1,0 -1,0 -2,-1 0,0 -1,-1 -1,-1zm28 32c-1,-1 -1,-2 -1,-3 -2,2 -4,3 -7,3 -3,0 -5,-1 -6,-2 -2,-1 -3,-3 -3,-5 0,-3 1,-5 3,-6 2,-2 5,-3 9,-3l4 0 0 -2c0,-1 -1,-2 -1,-3 -1,-1 -3,-2 -4,-2 -2,0 -3,1 -4,2 -1,0 -2,1 -2,2l-4 0c0,-1 0,-2 1,-3 1,-1 2,-2 4,-3 1,-1 3,-1 5,-1 3,0 5,1 7,2 1,2 2,4 2,6l0 12c0,2 1,4 1,5l0 1 -4 0zm-8 -4c2,0 3,0 4,-1 2,0 2,-1 3,-2l0 -6 -3 0c-6,0 -8,2 -8,5 0,1 0,3 1,3 1,1 2,1 3,1z"/>
   <path class="fil6" d="M293 299l66 0 0 -7 -3 0c3,0 3,-1 3,-4 0,-3 -1,-4 -2,-6 -2,-2 -5,-6 -9,-6l3 -7 -2 0c0,-2 1,-2 0,-4 0,-1 -1,-2 -2,-4 -4,-9 -6,-16 -8,-25 -10,6 -20,12 -29,17 -1,1 -1,3 -1,4 -2,4 -4,5 -6,8 0,2 0,3 0,4l-2 0 3 7c-5,0 -11,7 -11,12 0,4 1,4 3,4l-3 0 0 7zm43 -90c0,-3 0,-4 0,-5 1,0 2,1 2,0 1,-3 -1,-5 -2,-6 1,-1 2,-1 2,-2 0,-1 0,-1 0,-2 -1,0 -1,0 -1,0l0 0 -1 -4c0,-1 2,-1 2,-2 1,-2 -1,-2 -1,-3l6 -27 -3 0c0,2 0,3 -1,4 0,1 -2,1 -3,1 0,-1 -1,-2 -1,-3 -1,-2 -3,-4 -4,-6 -1,-1 -2,-2 -3,-2 1,-1 1,-2 1,-3 -1,-2 -2,-2 -2,-3l-1 0c-1,1 -2,1 -3,3 0,1 1,2 1,3 0,0 -1,0 -1,1 -2,2 -4,4 -5,7 -1,0 -2,3 -2,3 -1,1 -3,0 -3,-1 -1,-1 -1,-2 -1,-4l-4 0 8 27c-1,1 -2,1 -2,3 0,1 1,1 3,1l-1 5c-1,0 -2,0 -2,2 0,1 1,2 2,2 -1,1 -2,2 -2,4 0,3 0,2 3,2 0,2 -1,11 -1,16 6,-4 13,-8 20,-11z"/>
   <path class="fil1" d="M284 288c-5,-8 -9,-17 13,-30 17,-10 60,-36 67,-48 6,-12 0,-25 -14,-28 3,4 9,8 4,16 -8,10 -31,21 -45,29 -10,6 -30,20 -35,30 -6,8 -3,27 10,31z"/>
  </g>
 </g>
</svg>
