<?xml version="1.0" encoding="UTF-8"?>
<!DOCTYPE svg PUBLIC "-//W3C//DTD SVG 1.1//EN" "http://www.w3.org/Graphics/SVG/1.1/DTD/svg11.dtd">
<!-- Creator: CorelDRAW X8 -->
<svg xmlns="http://www.w3.org/2000/svg" xml:space="preserve" width="1091px" height="560px" version="1.1" style="shape-rendering:geometricPrecision; text-rendering:geometricPrecision; image-rendering:optimizeQuality; fill-rule:evenodd; clip-rule:evenodd"
viewBox="0 0 1059 543"
 xmlns:xlink="http://www.w3.org/1999/xlink">
 <defs>
  <style type="text/css">
   <![CDATA[
    .fil0 {fill:none}
    .fil1 {fill:white}
    .fil2 {fill:white;fill-rule:nonzero}
   ]]>
  </style>
 </defs>
 <g id="Layer_x0020_1">
  <metadata id="CorelCorpID_0Corel-Layer"/>
  <rect class="fil0" width="1059" height="543"/>
  <path class="fil1" d="M391 436c-2,0 -5,3 -7,4l-19 8c-9,5 -34,10 -43,11l-17 2c-73,3 -138,-33 -175,-95 -11,-18 -20,-43 -23,-64 -2,-10 -2,-12 -3,-23 -1,-30 5,-67 23,-100 33,-61 93,-97 159,-101 32,-2 65,5 100,23 -4,-5 -22,-13 -29,-17 -57,-27 -127,-23 -181,6 -69,38 -113,114 -107,193 0,8 1,9 2,16 0,0 0,0 0,1 0,3 0,2 0,4 1,6 5,23 7,28 15,51 55,99 109,124 45,21 93,23 135,13 8,-2 16,-4 24,-8 7,-3 15,-6 23,-10 4,-2 20,-11 22,-15z"/>
  <path class="fil1" d="M40 296l-1 -15c-3,-79 34,-152 101,-195 4,-3 8,-5 13,-8l14 -7c-2,-1 -13,3 -15,4 -15,6 -28,12 -42,21 -18,13 -35,27 -51,47 -32,42 -45,88 -44,138 1,42 17,84 42,117 22,30 54,54 89,69 8,3 30,11 36,10 -4,-2 -10,-4 -15,-6 -15,-7 -30,-16 -43,-26 -30,-24 -54,-54 -67,-87 -4,-9 -7,-17 -9,-25 -3,-9 -4,-15 -6,-24l-2 -13z"/>
  <path class="fil2" d="M523 314l-54 -112c-3,-6 -7,-9 -12,-9l-7 0c-5,0 -10,3 -13,9l-53 112 31 0 38 -83 18 38 -25 0 -12 26 49 0 9 19 31 0z"/>
  <path class="fil2" d="M268 314c10,0 18,-4 24,-11 -11,-7 -17,-20 -9,-34 3,-5 8,-10 13,-14 -6,-9 -16,-15 -28,-15l-46 0c-5,0 -7,-3 -7,-8 0,-5 2,-8 7,-8l78 0 0 -31 -80 0c-19,0 -33,15 -33,37 0,21 14,36 33,36l47 0c4,0 6,3 6,8 0,6 -2,9 -6,9l-79 0 0 31 80 0zm28 -16l0 0 0 0 0 0z"/>
  <path class="fil2" d="M581 314l0 -121 -28 0 0 121 28 0zm122 0c6,0 10,-5 10,-13l0 -108 -27 0 0 71 -50 -62c-5,-6 -8,-9 -17,-9l-7 0c-9,0 -13,5 -13,14l0 107 27 0 0 -77 55 66c5,7 8,11 16,11l6 0zm88 0c32,0 56,-25 56,-60 0,-36 -24,-61 -56,-61l-60 0 0 121 60 0zm-32 -31l0 -59 34 0c15,0 25,12 25,30 0,17 -10,29 -25,29l-34 0zm131 31l0 -121 -29 0 0 121 29 0zm150 0l-54 -112c-3,-6 -7,-9 -13,-9l-6 0c-6,0 -10,3 -13,9l-54 112 32 0 38 -83 18 38 -25 0 -12 26 49 0 9 19 31 0z"/>
  <path class="fil2" d="M199 358c-4,-1 -7,-2 -9,-4 -1,-2 -2,-4 -2,-6 0,-3 1,-5 3,-7 2,-2 5,-3 9,-3 2,0 4,1 6,2 2,0 4,2 5,3 1,2 1,4 1,6l-4 0c0,-2 -1,-4 -2,-5 -2,-1 -4,-2 -6,-2 -3,0 -4,0 -6,1 -1,2 -2,3 -2,5 0,1 1,2 2,3 1,1 4,2 7,3 3,1 5,2 7,3 1,1 2,2 3,3 1,2 1,3 1,5 0,3 -1,5 -3,7 -2,2 -5,3 -9,3 -2,0 -5,-1 -7,-2 -2,-1 -4,-2 -5,-4 -1,-1 -1,-3 -1,-5l4 0c0,2 1,4 3,5 1,1 3,2 6,2 3,0 4,-1 6,-2 1,-1 2,-2 2,-4 0,-1 -1,-3 -2,-4 -1,-1 -4,-2 -7,-3zm25 -17l0 7 5 0 0 3 -5 0 0 17c0,1 0,2 1,2 0,1 1,1 2,1 0,0 1,0 2,0l0 3c-1,1 -2,1 -3,1 -2,0 -4,-1 -5,-2 -1,-1 -2,-3 -2,-5l0 -17 -4 0 0 -3 4 0 0 -7 5 0zm23 11c-1,0 -1,0 -2,0 -3,0 -5,1 -6,3l0 19 -5 0 0 -26 5 0 0 3c1,-3 3,-4 6,-4 1,0 2,0 2,1l0 4zm20 22c-1,0 -1,-1 -1,-3 -2,3 -5,4 -8,4 -2,0 -4,-1 -6,-2 -2,-2 -3,-4 -3,-6 0,-3 1,-5 4,-7 2,-1 5,-2 8,-2l5 0 0 -2c0,-1 -1,-3 -2,-4 -1,-1 -2,-1 -4,-1 -1,0 -3,0 -4,1 -1,1 -1,2 -1,3l-5 0c0,-1 0,-2 1,-4 1,-1 3,-2 4,-3 2,0 4,-1 6,-1 3,0 5,1 7,3 1,1 2,3 2,6l0 12c0,3 1,4 1,6l0 0 -4 0zm-8 -3c1,0 3,0 4,-1 1,-1 2,-2 3,-3l0 -6 -4 0c-5,0 -8,2 -8,5 0,2 0,3 1,4 1,1 3,1 4,1zm25 -30l0 7 5 0 0 3 -5 0 0 17c0,1 0,2 0,2 1,1 1,1 3,1 0,0 1,0 2,0l0 3c-1,1 -3,1 -4,1 -2,0 -3,-1 -4,-2 -1,-1 -2,-3 -2,-5l0 -17 -5 0 0 -3 5 0 0 -7 5 0zm21 34c-4,0 -7,-1 -9,-4 -2,-2 -3,-5 -3,-9l0 -1c0,-3 0,-5 1,-7 1,-2 3,-4 4,-5 2,-1 4,-2 6,-2 4,0 6,1 8,4 2,2 3,5 3,9l0 2 -18 0c0,3 1,5 3,7 1,1 3,2 5,2 2,0 3,0 4,-1 1,-1 2,-1 3,-3l3 3c-2,3 -6,5 -10,5zm-1 -24c-2,0 -3,1 -4,2 -2,1 -2,3 -3,6l14 0 0 -1c0,-2 -1,-4 -2,-5 -1,-1 -3,-2 -5,-2zm15 10c0,-4 1,-8 3,-10 2,-3 5,-4 8,-4 3,0 6,1 7,4l1 -3 4 0 0 26c0,3 -1,6 -3,8 -2,2 -5,3 -8,3 -2,0 -4,-1 -6,-2 -2,0 -3,-1 -4,-3l2 -3c2,3 4,4 7,4 2,0 4,-1 5,-2 2,-1 2,-3 2,-5l0 -2c-2,2 -4,3 -7,3 -3,0 -6,-1 -8,-4 -2,-2 -3,-6 -3,-10zm5 0c0,3 1,6 2,7 1,2 3,3 5,3 3,0 5,-1 6,-4l0 -12c-1,-3 -3,-4 -6,-4 -2,0 -4,1 -5,3 -1,1 -2,4 -2,7zm30 13l-5 0 0 -26 5 0 0 26zm-5 -33c0,-1 0,-2 0,-2 1,-1 1,-1 2,-1 1,0 2,0 2,1 1,0 1,1 1,2 0,0 0,1 -1,2 0,0 -1,0 -2,0 -1,0 -1,0 -2,0 0,-1 0,-2 0,-2zm22 30c2,0 3,0 5,-1 1,-1 2,-3 2,-4l4 0c0,1 -1,3 -2,4 -1,2 -2,3 -3,4 -2,0 -4,1 -6,1 -3,0 -6,-1 -8,-4 -2,-2 -3,-6 -3,-10l0 -1c0,-2 0,-4 1,-6 1,-2 2,-4 4,-5 2,-1 4,-2 6,-2 3,0 6,1 8,3 2,2 3,4 3,7l-4 0c0,-2 -1,-3 -2,-4 -1,-1 -3,-2 -5,-2 -2,0 -4,1 -5,2 -1,2 -2,5 -2,8l0 1c0,3 1,5 2,7 1,1 3,2 5,2zm34 3l-4 0 0 -35 4 0 0 35zm12 -26l1 3c2,-2 4,-4 8,-4 5,0 8,3 8,10l0 17 -5 0 0 -17c0,-2 0,-4 -1,-4 -1,-1 -2,-2 -4,-2 -1,0 -3,1 -4,1 -1,1 -2,2 -2,3l0 19 -5 0 0 -26 4 0zm30 -7l0 7 5 0 0 3 -5 0 0 17c0,1 0,2 1,2 0,1 1,1 2,1 0,0 1,0 2,0l0 3c-1,1 -2,1 -3,1 -2,0 -4,-1 -5,-2 -1,-1 -2,-3 -2,-5l0 -17 -4 0 0 -3 4 0 0 -7 5 0zm21 34c-3,0 -6,-1 -9,-4 -2,-2 -3,-5 -3,-9l0 -1c0,-3 1,-5 2,-7 1,-2 2,-4 4,-5 2,-1 4,-2 6,-2 3,0 6,1 8,4 2,2 3,5 3,9l0 2 -18 0c0,3 0,5 2,7 1,1 3,2 5,2 2,0 3,0 5,-1 1,-1 2,-1 2,-3l3 3c-2,3 -5,5 -10,5zm0 -24c-2,0 -4,1 -5,2 -1,1 -2,3 -2,6l13 0 0 -1c0,-2 -1,-4 -2,-5 -1,-1 -2,-2 -4,-2zm21 23l-5 0 0 -37 5 0 0 37zm12 0l-5 0 0 -37 5 0 0 37zm12 0l-4 0 0 -26 4 0 0 26zm-5 -33c0,-1 0,-2 1,-2 0,-1 1,-1 2,-1 1,0 1,0 2,1 0,0 1,1 1,2 0,0 -1,1 -1,2 -1,0 -1,0 -2,0 -1,0 -2,0 -2,0 -1,-1 -1,-2 -1,-2zm11 20c0,-4 1,-8 3,-10 2,-3 5,-4 8,-4 3,0 6,1 7,4l1 -3 4 0 0 26c0,3 -1,6 -3,8 -2,2 -5,3 -9,3 -1,0 -3,-1 -5,-2 -2,0 -3,-1 -4,-3l2 -3c2,3 4,4 7,4 2,0 4,-1 5,-2 2,-1 2,-3 2,-5l0 -2c-2,2 -4,3 -7,3 -3,0 -6,-1 -8,-4 -2,-2 -3,-6 -3,-10zm5 0c0,3 0,6 2,7 1,2 3,3 5,3 3,0 5,-1 6,-4l0 -12c-1,-3 -3,-4 -6,-4 -2,0 -4,1 -5,3 -2,1 -2,4 -2,7zm36 14c-4,0 -7,-1 -9,-4 -3,-2 -4,-5 -4,-9l0 -1c0,-3 1,-5 2,-7 1,-2 2,-4 4,-5 2,-1 4,-2 6,-2 3,0 6,1 8,4 2,2 3,5 3,9l0 2 -18 0c0,3 1,5 2,7 2,1 4,2 6,2 1,0 3,0 4,-1 1,-1 2,-1 3,-3l3 3c-3,3 -6,5 -10,5zm-1 -24c-2,0 -3,1 -5,2 -1,1 -2,3 -2,6l13 0 0 -1c0,-2 0,-4 -2,-5 -1,-1 -2,-2 -4,-2zm20 -3l1 3c2,-2 4,-4 7,-4 6,0 9,3 9,10l0 17 -5 0 0 -17c0,-2 0,-4 -1,-4 -1,-1 -2,-2 -4,-2 -1,0 -3,1 -4,1 -1,1 -2,2 -2,3l0 19 -5 0 0 -26 4 0zm34 23c2,0 3,0 5,-1 1,-1 2,-3 2,-4l4 0c0,1 -1,3 -2,4 -1,2 -2,3 -3,4 -2,0 -4,1 -6,1 -3,0 -6,-1 -8,-4 -2,-2 -3,-6 -3,-10l0 -1c0,-2 0,-4 1,-6 1,-2 2,-4 4,-5 2,-1 4,-2 6,-2 3,0 6,1 8,3 2,2 3,4 3,7l-4 0c0,-2 -1,-3 -2,-4 -1,-1 -3,-2 -5,-2 -2,0 -4,1 -5,2 -1,2 -2,5 -2,8l0 1c0,3 1,5 2,7 1,1 3,2 5,2zm27 4c-4,0 -6,-1 -9,-4 -2,-2 -3,-5 -3,-9l0 -1c0,-3 0,-5 1,-7 1,-2 3,-4 5,-5 1,-1 3,-2 6,-2 3,0 6,1 8,4 1,2 2,5 2,9l0 2 -18 0c1,3 1,5 3,7 1,1 3,2 5,2 2,0 3,0 4,-1 2,-1 2,-1 3,-3l3 3c-2,3 -5,5 -10,5zm0 -24c-2,0 -4,1 -5,2 -1,1 -2,3 -2,6l13 0 0 -1c0,-2 -1,-4 -2,-5 -1,-1 -3,-2 -4,-2zm27 14c0,-2 1,-4 2,-5 1,-1 2,-3 5,-5 -2,-2 -3,-4 -3,-5 -1,-1 -1,-2 -1,-3 0,-3 1,-5 2,-7 2,-1 4,-2 7,-2 2,0 4,1 6,2 2,2 2,3 2,6 0,1 0,2 -1,4 0,1 -2,2 -3,3l-3 2 8 10c1,-2 2,-5 2,-7l4 0c0,4 -1,7 -3,10l5 6 -6 0 -2 -3c-1,2 -3,2 -4,3 -2,0 -4,1 -5,1 -4,0 -7,-1 -9,-3 -2,-2 -3,-4 -3,-7zm12 6c2,0 4,-1 6,-3l-8 -10 -1 0c-3,2 -4,5 -4,7 0,2 0,3 2,4 1,1 2,2 5,2zm-4 -24c0,1 1,3 2,6l3 -3c1,0 2,-1 3,-2 0,-1 0,-1 0,-2 0,-1 0,-2 -1,-3 -1,-1 -2,-1 -3,-1 -1,0 -2,0 -3,1 -1,1 -1,2 -1,4zm57 18l-15 0 -3 9 -5 0 14 -35 4 0 13 35 -4 0 -4 -9zm-13 -4l12 0 -6 -17 -6 17zm24 0c0,-4 1,-8 3,-10 2,-2 5,-4 8,-4 3,0 5,1 7,3l0 -13 5 0 0 37 -4 0 -1 -3c-1,3 -4,4 -7,4 -3,0 -6,-1 -8,-4 -2,-3 -3,-6 -3,-10l0 0zm5 0c0,3 0,6 2,7 1,2 3,3 5,3 3,0 5,-1 6,-4l0 -12c-1,-3 -3,-4 -6,-4 -2,0 -4,1 -5,3 -2,1 -2,4 -2,7zm33 7l7 -20 5 0 -10 26 -3 0 -10 -26 5 0 6 20zm14 -7c0,-3 1,-5 2,-7 1,-2 2,-4 4,-5 2,-1 4,-2 7,-2 3,0 6,2 8,4 2,3 4,6 4,10l0 0c0,3 -1,5 -2,7 -1,2 -2,4 -4,5 -2,1 -4,2 -6,2 -4,0 -7,-1 -9,-4 -2,-2 -4,-6 -4,-10l0 0zm5 0c0,3 1,6 2,7 1,2 3,3 6,3 2,0 4,-1 5,-3 1,-1 2,-4 2,-7 0,-3 -1,-6 -2,-7 -1,-2 -3,-3 -5,-3 -3,0 -5,1 -6,3 -1,1 -2,4 -2,7zm36 10c2,0 3,0 4,-1 1,-1 2,-3 2,-4l4 0c0,1 0,3 -1,4 -1,2 -2,3 -4,4 -2,0 -3,1 -5,1 -4,0 -7,-1 -9,-4 -2,-2 -3,-6 -3,-10l0 -1c0,-2 1,-4 2,-6 0,-2 2,-4 4,-5 1,-1 3,-2 6,-2 3,0 5,1 7,3 2,2 3,4 3,7l-4 0c0,-2 -1,-3 -2,-4 -1,-1 -2,-2 -4,-2 -2,0 -4,1 -5,2 -2,2 -2,5 -2,8l0 1c0,3 0,5 2,7 1,1 3,2 5,2zm32 3c0,0 -1,-1 -1,-3 -2,3 -4,4 -7,4 -3,0 -5,-1 -7,-2 -1,-2 -2,-4 -2,-6 0,-3 1,-5 3,-7 2,-1 5,-2 9,-2l4 0 0 -2c0,-1 0,-3 -1,-4 -1,-1 -3,-1 -4,-1 -2,0 -3,0 -4,1 -2,1 -2,2 -2,3l-5 0c0,-1 1,-2 2,-4 1,-1 2,-2 4,-3 1,0 3,-1 5,-1 3,0 5,1 7,3 2,1 3,3 3,6l0 12c0,3 0,4 1,6l0 0 -5 0zm-8 -3c2,0 3,0 4,-1 2,-1 3,-2 3,-3l0 -6 -3 0c-6,0 -9,2 -9,5 0,2 1,3 2,4 1,1 2,1 3,1zm29 0c2,0 4,0 5,-1 1,-1 2,-3 2,-4l4 0c0,1 -1,3 -2,4 0,2 -2,3 -3,4 -2,0 -4,1 -6,1 -3,0 -6,-1 -8,-4 -2,-2 -3,-6 -3,-10l0 -1c0,-2 0,-4 1,-6 1,-2 2,-4 4,-5 2,-1 4,-2 6,-2 3,0 6,1 8,3 2,2 3,4 3,7l-4 0c0,-2 -1,-3 -2,-4 -1,-1 -3,-2 -5,-2 -2,0 -4,1 -5,2 -1,2 -2,5 -2,8l0 1c0,3 1,5 2,7 1,1 3,2 5,2zm25 -3l6 -20 5 0 -11 30c-1,5 -4,7 -8,7l-1 0 -1 0 0 -4 1 0c2,0 3,0 4,-1 0,-1 1,-2 2,-3l1 -3 -10 -26 5 0 7 20zm33 6l-5 0 0 -35 5 0 0 35zm12 -26l0 3c2,-2 5,-4 8,-4 6,0 9,3 9,10l0 17 -5 0 0 -17c0,-2 0,-4 -1,-4 -1,-1 -2,-2 -4,-2 -1,0 -3,1 -4,1 -1,1 -2,2 -2,3l0 19 -5 0 0 -26 4 0zm23 13c0,-4 1,-8 2,-10 2,-2 5,-4 8,-4 3,0 6,1 7,3l0 -13 5 0 0 37 -4 0 0 -3c-2,3 -5,4 -8,4 -3,0 -6,-1 -8,-4 -1,-3 -2,-6 -2,-10l0 0zm4 0c0,3 1,6 2,7 1,2 3,3 5,3 3,0 5,-1 6,-4l0 -12c-1,-3 -3,-4 -6,-4 -2,0 -4,1 -5,3 -1,1 -2,4 -2,7zm30 13l-5 0 0 -26 5 0 0 26zm-5 -33c0,-1 0,-2 1,-2 0,-1 1,-1 2,-1 1,0 1,0 2,1 0,0 0,1 0,2 0,0 0,1 0,2 -1,0 -1,0 -2,0 -1,0 -2,0 -2,0 -1,-1 -1,-2 -1,-2zm29 33c-1,0 -1,-1 -1,-3 -2,3 -5,4 -8,4 -2,0 -4,-1 -6,-2 -2,-2 -3,-4 -3,-6 0,-3 1,-5 4,-7 2,-1 5,-2 8,-2l5 0 0 -2c0,-1 -1,-3 -2,-4 -1,-1 -2,-1 -4,-1 -1,0 -3,0 -4,1 -1,1 -2,2 -2,3l-4 0c0,-1 0,-2 1,-4 1,-1 3,-2 4,-3 2,0 4,-1 5,-1 4,0 6,1 8,3 1,1 2,3 2,6l0 12c0,3 1,4 1,6l0 0 -4 0zm-8 -3c1,0 3,0 4,-1 1,-1 2,-2 3,-3l0 -6 -4 0c-5,0 -8,2 -8,5 0,2 0,3 1,4 1,1 3,1 4,1z"/>
  <path class="fil1" d="M307 314l70 0 0 -7 -3 0c3,-1 3,-2 3,-5 0,-3 -1,-4 -2,-6 -2,-2 -6,-7 -10,-7l3 -6 -2 -1c1,-1 1,-2 0,-4 0,-1 -1,-2 -1,-4 -5,-9 -7,-16 -9,-26 -11,6 -22,12 -31,18 0,1 -1,2 -1,3 -2,5 -4,6 -6,9 -1,2 0,3 0,5l-2 0 3 6c-5,0 -12,8 -12,13 0,4 1,4 3,5l-3 0 0 7zm45 -95c0,-3 0,-4 0,-5 1,0 2,1 3,0 1,-3 -2,-5 -2,-6 1,-1 2,-1 2,-3 0,0 0,-1 -1,-1 0,0 0,0 0,0l-1 -1 0 -4c0,-1 2,0 2,-2 0,-2 -1,-2 -2,-3l7 -28 -3 0c0,2 0,3 -1,4 -1,1 -2,2 -3,1 -1,-1 -1,-2 -2,-3 -1,-3 -2,-5 -4,-6 -1,-1 -2,-2 -3,-3 1,-1 2,-1 1,-3 0,-2 -1,-2 -2,-2l-1 0c-1,0 -2,0 -3,2 0,1 1,2 1,3 0,1 -1,1 -1,1 -2,2 -4,5 -6,8 0,0 -1,3 -1,3 -2,1 -3,0 -4,-1 -1,-1 -1,-2 -1,-4l-4 0 8 28c-1,1 -2,1 -1,3 0,1 1,2 2,2l-1 4c-1,1 -2,1 -2,2 0,2 1,2 2,3 0,1 -1,2 -2,4 0,3 1,2 3,2 0,3 0,12 -1,17 7,-4 14,-8 21,-12z"/>
  <path class="fil1" d="M299 302c-6,-8 -10,-17 13,-31 18,-11 63,-38 70,-50 7,-13 0,-27 -14,-30 3,4 9,9 3,16 -8,12 -32,22 -47,31 -10,6 -31,22 -36,31 -7,9 -3,29 11,33z"/>
 </g>
</svg>
